HIERARCHY
ROOT Hip
{
   OFFSET 0.00000 0.00000 0.00000
   CHANNELS 6 Xposition Yposition Zposition Zrotation Yrotation Xrotation
   JOINT Head
   {
      OFFSET 0.000000 23.756001 0.000000
      CHANNELS 3 Zrotation Yrotation Xrotation
      End Site
      {
         OFFSET 0.000000 14.154000 0.000000
      }
      JOINT LeftShoulder
      {
         OFFSET 7.854600 0.000000 0.000000
         CHANNELS 3 Zrotation Yrotation Xrotation
         JOINT LeftHand
         {
            OFFSET 0.000000 -11.478000 0.000000
            CHANNELS 3 Zrotation Yrotation Xrotation
            End Site
            {
               OFFSET 0.000000 -12.571000 0.000000
            }
         }
      }
      JOINT RightShoulder
      {
         OFFSET -8.371200 0.000000 0.000000
         CHANNELS 3 Zrotation Yrotation Xrotation
         JOINT RightHand
         {
            OFFSET 0.000000 -13.753000 0.000000
            CHANNELS 3 Zrotation Yrotation Xrotation
            End Site
            {
               OFFSET 0.000000 -11.776000 0.000000
            }
         }
      }
   }
   JOINT LeftHip
   {
      OFFSET 8.311300 0.000000 0.000000
      CHANNELS 3 Zrotation Yrotation Xrotation
      JOINT LeftKnee
      {
         OFFSET 0.000000 -23.427999 0.000000
         CHANNELS 3 Zrotation Yrotation Xrotation
         JOINT LeftFoot
         {
            OFFSET 0.000000 -17.863000 0.000000
            CHANNELS 3 Zrotation Yrotation Xrotation
            End Site
            {
               OFFSET 0.000000 0.000000 11.641000
            }
         }
      }
   }
   JOINT RightHip
   {
      OFFSET -8.311300 0.000000 0.000000
      CHANNELS 3 Zrotation Yrotation Xrotation
      JOINT RightKnee
      {
         OFFSET 0.000000 -21.203000 0.000000
         CHANNELS 3 Zrotation Yrotation Xrotation
         JOINT RightFoot
         {
            OFFSET 0.000000 -18.184000 0.000000
            CHANNELS 3 Zrotation Yrotation Xrotation
            End Site
            {
               OFFSET 0.000000 0.000000 11.692999
            }
         }
      }
   }
}
MOTION
Frames: 27
Frame Time: 0.016670
15.681957 41.453275 -25.056138 -2.915465 126.514242 2.553166 1.090445 -9.140613 -35.104573 16.992145 -10.983637 18.892916 11.107248 -3.354576 26.210089 -48.692374 -9.892615 44.890407 -43.520452 7.259585 43.339398 6.571650 -65.095890 -20.316790 32.004337 -61.801218 -9.132679 -1.873449 -60.714467 -21.428175 -9.874006 -61.929824 13.103113 26.758045 -49.502510 -14.609010 -1.468788 -52.159361 -4.195626
15.671092 41.450033 -25.098736 -3.224547 127.676767 2.363260 0.969745 -10.387655 -35.460092 16.121118 -14.602299 19.905881 9.390054 -3.134386 27.479796 -52.542511 -13.602324 45.938982 -48.751910 6.473413 39.141547 7.131757 -65.292538 -21.141672 32.187164 -62.002784 -10.222207 -1.704924 -61.326281 -21.335851 -12.241323 -63.182289 15.865804 29.568118 -48.485163 -16.785526 -1.584607 -52.970108 -4.365233
15.658694 41.444501 -25.133926 -3.326598 127.783222 2.364309 0.975068 -10.382893 -35.931276 14.914162 -18.057960 21.049198 7.697496 -2.886548 28.782359 -56.928735 -17.083169 47.478083 -53.249220 5.086553 34.517129 7.137906 -65.148161 -21.283143 32.226765 -62.046770 -10.410000 -1.672575 -61.462721 -21.306526 -12.873209 -63.950604 16.386594 29.629029 -48.169783 -16.585781 -1.621370 -52.632280 -4.407667
15.644029 41.440982 -25.169081 -3.425299 127.836594 2.367930 0.979556 -10.308579 -36.384226 13.511964 -21.422665 22.300694 5.939661 -2.577370 29.967421 -61.579797 -20.433187 49.313156 -57.061244 3.365773 29.776032 7.121715 -65.002398 -21.394990 32.259038 -62.070915 -10.580548 -1.635655 -61.567687 -21.269259 -13.397183 -64.679760 16.763709 29.463479 -47.927407 -16.228099 -1.631931 -52.217267 -4.413069
15.613001 41.431136 -25.192682 -3.507288 127.833383 2.419282 1.023646 -10.144330 -36.820785 11.940339 -24.668246 23.557831 4.098186 -2.200685 31.031339 -66.381543 -23.513083 51.346992 -60.229407 1.552161 25.171528 7.164886 -64.804603 -21.590909 32.357895 -62.090422 -10.740889 -1.613346 -61.699954 -21.250301 -13.866204 -65.431122 17.073704 29.378641 -47.630884 -15.869063 -1.685876 -51.782437 -4.472159
15.609712 41.430897 -25.223906 -3.550391 127.971995 2.420600 1.064073 -10.097930 -37.199112 10.198235 -27.807575 24.953015 2.132694 -1.756238 31.902017 -71.234174 -26.228603 53.595070 -62.754344 -0.200887 20.703746 7.142051 -64.809554 -21.629225 32.469534 -62.084022 -10.921157 -1.604520 -61.818785 -21.245261 -14.604509 -66.040266 17.766126 29.473796 -47.385489 -15.709505 -1.683263 -51.527494 -4.466627
15.591357 41.426148 -25.246784 -3.608363 128.087699 2.430769 1.049405 -9.947736 -37.518748 8.437266 -30.848795 26.305755 0.074678 -1.241081 32.607685 -75.912874 -28.568221 55.940479 -64.885069 -1.673106 16.471787 7.152649 -64.705278 -21.740402 32.527714 -62.105421 -11.094715 -1.579265 -61.945472 -21.223638 -15.192018 -66.668206 18.260123 29.348343 -47.162784 -15.357137 -1.691718 -51.156143 -4.468481
15.579839 41.422233 -25.268120 -3.633810 128.240695 2.441131 1.049018 -9.781791 -37.787752 6.561022 -33.761266 27.617779 -1.995155 -0.703219 33.171828 -80.454724 -30.536232 58.347533 -66.830259 -2.796319 12.457001 7.166015 -64.685436 -21.808722 32.635385 -62.090907 -11.286886 -1.563156 -62.065908 -21.211562 -16.006128 -67.228480 19.037324 29.542938 -46.909524 -15.224302 -1.722062 -50.951207 -4.510135
15.597555 41.408228 -25.296235 -3.590648 128.227690 2.434158 1.022795 -9.362326 -37.905938 4.715501 -36.527350 28.881820 -4.125188 -0.114144 33.546956 -84.786622 -32.237352 60.735961 -68.991953 -3.505595 8.664347 6.987513 -64.789481 -21.561915 32.759141 -61.969384 -11.299354 -1.650624 -62.033089 -21.285294 -16.855621 -67.612951 19.910061 29.648516 -46.652781 -15.033262 -1.740060 -50.686421 -4.527695
15.578737 41.407232 -25.305841 -3.579774 128.446939 2.483088 0.959462 -9.149469 -38.074828 2.832174 -39.133320 30.115192 -6.153187 0.448678 33.730469 -88.859511 -33.638395 63.114677 -71.235711 -3.888988 4.800101 7.068416 -64.713782 -21.699827 32.849098 -62.024770 -11.530086 -1.626278 -62.225571 -21.278660 -17.678915 -68.172139 20.724121 29.796840 -46.433938 -14.862227 -1.759108 -50.480702 -4.544939
15.556491 41.405348 -25.312042 -3.540469 128.634565 2.551763 0.897504 -8.845998 -38.211224 0.925584 -41.583705 31.318446 -8.095060 0.977802 33.702875 -92.676856 -34.752197 65.373475 -73.652976 -3.985951 0.739561 7.023189 -64.320281 -21.839552 32.575382 -62.376819 -11.465346 -1.579743 -62.462271 -21.251350 -18.564852 -68.660272 21.616601 30.025115 -46.194595 -14.684137 -1.795788 -50.278235 -4.578048
15.536752 41.395754 -25.313789 -3.513356 128.809363 2.598705 0.775041 -8.543804 -38.326346 -0.934384 -43.865425 32.540824 -9.923997 1.473088 33.581185 -96.208522 -35.604144 67.553706 -76.292598 -3.873513 -3.628612 7.187345 -64.493638 -21.940092 32.938355 -62.173552 -11.814933 -1.636177 -62.575803 -21.319684 -19.595430 -69.079522 22.648714 30.419952 -45.939081 -14.582348 -1.876760 -50.153601 -4.670875
15.528731 41.392564 -25.309262 -3.455026 128.997166 2.639630 0.627559 -8.261896 -38.402124 -2.763204 -45.912839 33.805366 -11.622929 1.932178 33.367971 -99.658259 -36.193384 69.694711 -78.979779 -3.641143 -8.215806 7.270327 -64.474124 -21.996955 33.036710 -62.171114 -11.999678 -1.669294 -62.718991 -21.365972 -20.831011 -69.308347 23.947724 31.040799 -45.674247 -14.553823 -1.948811 -50.118371 -4.746932
15.522148 41.387915 -25.299282 -3.410486 129.189572 2.638589 0.426290 -7.917624 -38.351912 -4.438788 -47.942894 34.786645 -13.312014 2.456460 33.368510 -103.331255 -36.574454 71.904017 -81.637392 -3.374521 -12.612660 7.294970 -64.556277 -21.975157 33.196895 -62.098748 -12.152556 -1.715713 -62.807319 -21.418756 -22.298327 -69.437240 25.485123 31.925547 -45.379931 -14.647312 -2.054508 -50.199766 -4.870750
15.510893 41.379914 -25.273833 -3.356912 129.312324 2.649521 0.203637 -7.512174 -38.319438 -5.901222 -49.846540 35.573729 -15.018725 3.120374 33.659401 -107.499644 -36.677641 74.044735 -84.094723 -3.096330 -16.711135 7.408681 -64.797520 -21.945702 33.581117 -61.835984 -12.415803 -1.795759 -62.848969 -21.502207 -23.823915 -69.547821 27.061997 32.752417 -45.055001 -14.562269 -2.164051 -50.191587 -4.982434
15.493724 41.380877 -25.224259 -3.268786 129.444147 2.729590 -0.000723 -7.085537 -38.317778 -7.205800 -51.598114 36.237876 -16.676310 3.891695 34.170115 -112.010724 -36.679349 76.049061 -86.227450 -2.805130 -20.587831 7.669033 -64.776694 -22.063543 33.821188 -61.696737 -12.725652 -1.842237 -62.960527 -21.565202 -25.405300 -69.800319 28.703177 33.591717 -44.686062 -14.396709 -2.259897 -50.141819 -5.067682
15.492302 41.389756 -25.169315 -3.132226 129.344918 2.795154 -0.224925 -6.533992 -38.212620 -8.304445 -53.200931 36.903819 -18.303300 4.752108 34.641808 -116.685231 -36.802453 78.000501 -88.137628 -2.564554 -24.274219 7.793287 -64.771900 -21.981156 34.024529 -61.525647 -12.841167 -1.915519 -62.965451 -21.633706 -27.015932 -70.096954 30.403549 34.190814 -44.252014 -14.064704 -2.281332 -49.927511 -5.040092
15.470541 41.405553 -25.090892 -3.002546 129.082393 2.905524 -0.497315 -5.958016 -38.255907 -9.242971 -54.512635 37.714699 -19.936547 5.735972 35.212866 -121.365495 -36.974905 79.925105 -89.912692 -2.447234 -27.900930 7.951971 -64.642474 -21.926007 34.229886 -61.339122 -12.936910 -1.957004 -62.925652 -21.665818 -28.490939 -70.696727 31.879075 34.314799 -43.752839 -13.352671 -2.271159 -49.438306 -4.953184
15.475694 41.426215 -25.016119 -2.837705 128.549105 2.953251 -0.758993 -5.302126 -38.160694 -10.134835 -55.672947 38.593127 -21.375640 6.724637 35.950387 -126.003384 -37.315147 81.977392 -91.524774 -2.477808 -31.390836 7.847261 -64.675280 -21.497341 34.469670 -61.024325 -12.781954 -2.035827 -62.674150 -21.701251 -29.978329 -71.253749 33.347162 34.147862 -43.218316 -12.434641 -2.241823 -48.828438 -4.838178
15.478203 41.466760 -24.927783 -2.677073 127.955220 2.986521 -0.987838 -4.816031 -38.047596 -11.002818 -56.616907 39.528682 -22.738968 7.778171 36.744239 -130.534710 -37.945358 84.234715 -93.036479 -2.721743 -34.636439 7.769398 -64.793763 -21.031604 34.780553 -60.616904 -12.680339 -2.087699 -62.364005 -21.700576 -31.411712 -71.914679 34.729203 33.622006 -42.656136 -11.295073 -2.151767 -48.102150 -4.641270
15.474918 41.516055 -24.833858 -2.536409 127.031642 2.978404 -1.208255 -4.205002 -37.910067 -11.817935 -57.404106 40.464711 -24.074460 8.936622 37.569005 -134.950236 -38.822928 86.805591 -94.458989 -3.204262 -37.558261 7.616526 -65.063036 -20.382236 35.243281 -59.951774 -12.535468 -2.164173 -61.840669 -21.690866 -32.767938 -72.682946 35.906219 32.621735 -41.976686 -9.756848 -2.098054 -47.139438 -4.474012
15.497870 41.566114 -24.747321 -2.347497 125.878214 2.928607 -1.334959 -3.516242 -37.736785 -12.641399 -57.979345 41.414036 -25.312983 10.149310 38.382432 -139.150105 -39.715241 89.699105 -95.649184 -3.822826 -40.258726 7.177895 -65.688736 -19.288225 35.875347 -59.037710 -12.194473 -2.310207 -61.059828 -21.713574 -34.166905 -73.362167 37.167362 31.624254 -41.220035 -8.306868 -2.065549 -46.194219 -4.335249
15.565156 41.613016 -24.699278 -2.176141 124.480963 2.678990 -1.471834 -2.739438 -37.393848 -13.399028 -58.503104 42.263431 -26.548751 11.532938 39.214257 -143.083966 -40.599758 93.061662 -96.609037 -4.557498 -42.668598 5.959064 -66.790364 -17.337305 36.463890 -57.954162 -11.346577 -2.512465 -59.914843 -21.727948 -35.781466 -73.656152 38.665978 30.841507 -40.412307 -7.105717 -2.043044 -45.322639 -4.200852
15.677083 41.644878 -24.659774 -1.977074 122.999863 2.334120 -1.542774 -2.026409 -36.925085 -14.128992 -58.912636 43.107298 -27.588333 12.962336 39.947724 -146.694637 -41.267265 96.869875 -97.252885 -5.295703 -44.834998 3.989990 -68.693733 -14.442747 37.446987 -56.452757 -10.240065 -2.869629 -58.423949 -21.850503 -37.629513 -73.616359 40.490526 30.467729 -39.614076 -6.203519 -2.039720 -44.599581 -4.106983
15.836556 41.646733 -24.634871 -1.780105 121.668277 1.862841 -1.606740 -1.594122 -36.315726 -14.664269 -59.317126 43.910870 -28.577098 14.549990 40.344080 -149.958593 -41.735840 101.097038 -97.558290 -5.966397 -46.741768 0.427088 -71.894469 -9.739509 39.058269 -54.355216 -8.784398 -3.431180 -56.450322 -22.107316 -39.790947 -73.098249 42.735961 30.539647 -38.882495 -5.549212 -2.085455 -44.040869 -4.073072
16.022671 41.599616 -24.642663 -1.609085 120.217012 1.279071 -1.512392 -1.241526 -35.523964 -15.230745 -59.578866 44.628115 -29.499000 16.195248 40.413010 -152.885315 -42.217088 105.472881 -97.537082 -6.528878 -48.490402 -6.889157 -74.997629 -1.496893 40.990308 -52.296832 -6.701994 -4.074361 -54.466275 -22.457367 -42.329882 -72.180551 45.256352 31.139573 -38.188766 -4.904314 -2.265126 -43.594553 -4.222001
16.253859 41.482510 -24.686293 -1.433758 118.693579 0.588116 -1.309139 -0.905283 -34.541271 -15.816573 -59.831023 45.228225 -30.380005 17.931933 40.303003 -155.546726 -42.621934 109.842665 -97.018582 -6.711177 -49.949221 -17.837994 -74.073538 10.231656 45.981151 -50.938140 -7.582840 -4.438793 -54.212919 -22.955634 -45.215733 -70.886954 48.043182 32.051598 -37.478576 -4.096949 -2.594093 -43.154276 -4.575726
